<svg xmlns="http://www.w3.org/2000/svg" viewBox="0 0 280.87 206.25"><defs><style>.cls-1{fill:#5175b8;}.cls-1,.cls-11,.cls-3,.cls-4,.cls-5,.cls-9{fill-rule:evenodd;}.cls-10,.cls-2,.cls-6,.cls-7,.cls-8{fill:none;stroke-linecap:round;stroke-linejoin:round;}.cls-2,.cls-6{stroke:#000;}.cls-2{stroke-width:4.75px;}.cls-3{fill:#ffcc02;}.cls-4{fill:#f47f20;}.cls-14,.cls-5{fill:#253d8f;}.cls-6{stroke-width:5.94px;}.cls-10,.cls-7{stroke:#fff;}.cls-7{stroke-width:5.71px;}.cls-8{stroke:#231f20;stroke-width:9.77px;}.cls-13,.cls-9{fill:#009949;}.cls-10{stroke-width:5.35px;}.cls-11,.cls-12{fill:#fff;}</style></defs><title>Asset 1</title><g id="Layer_2" data-name="Layer 2"><g id="Layer_1-2" data-name="Layer 1"><path class="cls-1" d="M11.39,3H230.17a8.54,8.54,0,0,1,8.51,8.51v127c0,4.68-4.19,9.22-8.87,9.21L11.39,147a8.55,8.55,0,0,1-8.51-8.51v-127A8.54,8.54,0,0,1,11.39,3Z"/><path class="cls-2" d="M33.67,39.49H48.25a6.83,6.83,0,0,1,6.81,6.81V61.23A6.83,6.83,0,0,1,48.25,68H33.67a6.83,6.83,0,0,1-6.81-6.81V46.3a6.83,6.83,0,0,1,6.81-6.81Z"/><path class="cls-3" d="M33.67,39.49H48.25a6.83,6.83,0,0,1,6.81,6.81V61.23A6.83,6.83,0,0,1,48.25,68H33.67a6.83,6.83,0,0,1-6.81-6.81V46.3a6.83,6.83,0,0,1,6.81-6.81Z"/><polygon class="cls-4" points="26.86 47.7 55.06 47.7 55.06 50.11 26.86 50.11 26.86 47.7 26.86 47.7"/><polygon class="cls-4" points="26.86 59.83 55.06 59.83 55.06 57.42 26.86 57.42 26.86 59.83 26.86 59.83"/><polygon class="cls-4" points="37.47 39.49 37.47 47.7 35.06 47.7 35.06 39.49 37.47 39.49 37.47 39.49"/><polygon class="cls-4" points="37.47 68.04 37.47 59.83 35.06 59.83 35.06 68.04 37.47 68.04 37.47 68.04"/><polygon class="cls-4" points="46.96 39.49 46.96 47.73 44.56 47.73 44.56 39.49 46.96 39.49 46.96 39.49"/><polygon class="cls-4" points="46.96 68.04 46.96 59.8 44.56 59.8 44.56 68.04 46.96 68.04 46.96 68.04"/><path class="cls-5" d="M238.68,88.37H2.88v50.15A8.55,8.55,0,0,0,11.39,147l218.42.69c4.68,0,8.87-4.53,8.87-9.21V88.37Z"/><path class="cls-6" d="M238.68,25.08V13.53A10.59,10.59,0,0,0,228.13,3H13.53A10.59,10.59,0,0,0,3,13.53V136.82a10.59,10.59,0,0,0,10.56,10.56h211c12.22-.44,14.13-9.68,14.13-15.88v-6.28"/><path class="cls-7" d="M27.2,105.61H57.51m18.74,0h30m20.87.18h30.32"/><path class="cls-8" d="M237.65,36.67A38.33,38.33,0,1,1,199.32,75a38.33,38.33,0,0,1,38.33-38.33Z"/><path class="cls-9" d="M237.65,36.67A38.33,38.33,0,1,1,199.32,75a38.33,38.33,0,0,1,38.33-38.33Z"/><line class="cls-10" x1="26.86" y1="122.86" x2="106.54" y2="122.86"/><path class="cls-11" d="M220.94,83.36l9.33,9.38a26.92,26.92,0,0,0,3.05-2.92L248.13,75c.48-.48,8-8,8.3-8.34-.22-.33-.7-4.41-3-6.74-2.15-2.17-6.15-2.61-6.34-2.66L220.94,83.36Z"/><path class="cls-11" d="M247.07,57.27l9.35,9.4,3.05-3a21.47,21.47,0,0,0,2.22-2.36,2.51,2.51,0,0,0,.36-1.3v-.67c0-1.4-2.11-3.14-3.21-4.24a12.88,12.88,0,0,0-3-2.64,3.78,3.78,0,0,0-1.95-.39c-1.85,0-2.89,1.23-3.84,2.18l-3,3Z"/><path class="cls-11" d="M216.12,96.75c0,1.88,2.45.76,3.72.49l8-1.92c-.12-.45-4.23-4.37-4.64-4.78s-4.36-4.53-4.78-4.64c-.13.57-2.33,10.11-2.33,10.86Z"/><path class="cls-12" d="M174.44,38.76a12.17,12.17,0,0,1-4.77-.9,10.76,10.76,0,0,1-6-6,11.55,11.55,0,0,1-.82-4.31,12.21,12.21,0,0,1,.79-4.41,10.78,10.78,0,0,1,2.3-3.64A11,11,0,0,1,169.64,17a12.18,12.18,0,0,1,4.83-.92,11.88,11.88,0,0,1,4.79.92,11,11,0,0,1,3.6,2.47,10.5,10.5,0,0,1,2.26,3.6,12,12,0,0,1,.77,4.27q0,.54,0,1a4.25,4.25,0,0,1-.1.84H168.83a6.51,6.51,0,0,0,.63,2.3,5.64,5.64,0,0,0,3.1,2.8,5.91,5.91,0,0,0,2.09.38,6.46,6.46,0,0,0,3.16-.82,4.32,4.32,0,0,0,2-2.15L184.65,33a9.78,9.78,0,0,1-3.87,4.12,12,12,0,0,1-6.34,1.61Zm5.69-13.22a5.83,5.83,0,0,0-1.82-4,5.71,5.71,0,0,0-7.76,0,5.75,5.75,0,0,0-1.23,1.72,6,6,0,0,0-.56,2.22ZM188,27.38a11.93,11.93,0,0,1,.79-4.35,10.6,10.6,0,0,1,2.3-3.6A11.2,11.2,0,0,1,194.69,17,12,12,0,0,1,199.5,16a11.53,11.53,0,0,1,6.13,1.55,9.89,9.89,0,0,1,3.79,4.06l-5.48,1.67a4.93,4.93,0,0,0-1.88-1.86,5.27,5.27,0,0,0-2.59-.65,5.34,5.34,0,0,0-2.26.48,5.55,5.55,0,0,0-1.82,1.34,6.2,6.2,0,0,0-1.21,2.07,7.81,7.81,0,0,0-.44,2.68,7.49,7.49,0,0,0,.46,2.68,6.74,6.74,0,0,0,1.23,2.09,5.42,5.42,0,0,0,1.82,1.36,5.24,5.24,0,0,0,2.22.48,5.38,5.38,0,0,0,2.78-.75A4.24,4.24,0,0,0,204,31.39l5.48,1.67a9.21,9.21,0,0,1-3.72,4.1,11.7,11.7,0,0,1-6.24,1.59,12,12,0,0,1-4.81-.92,10.9,10.9,0,0,1-6-6.13,11.71,11.71,0,0,1-.82-4.33Z"/><path class="cls-13" d="M14.84,206.25a15.13,15.13,0,0,1-5.93-1.12,13.38,13.38,0,0,1-7.41-7.52,14.36,14.36,0,0,1-1-5.36,15.18,15.18,0,0,1,1-5.49,13.39,13.39,0,0,1,2.86-4.53,13.66,13.66,0,0,1,4.55-3.1,15.15,15.15,0,0,1,6-1.14,14.78,14.78,0,0,1,6,1.14,13.69,13.69,0,0,1,4.47,3.07,13,13,0,0,1,2.81,4.47,14.9,14.9,0,0,1,1,5.31q0,.68,0,1.3a5.28,5.28,0,0,1-.13,1H7.87a8.09,8.09,0,0,0,.78,2.86,7,7,0,0,0,3.85,3.49,7.34,7.34,0,0,0,2.6.47,8,8,0,0,0,3.93-1,5.37,5.37,0,0,0,2.52-2.68l6,1.66a12.16,12.16,0,0,1-4.81,5.12,14.92,14.92,0,0,1-7.88,2Zm7.08-16.44a7.25,7.25,0,0,0-2.26-4.92A6.92,6.92,0,0,0,14.79,183a6.94,6.94,0,0,0-2.63.49A6.85,6.85,0,0,0,10,184.91,7.14,7.14,0,0,0,8.46,187a7.52,7.52,0,0,0-.7,2.76Zm22.74,16.44a12.31,12.31,0,0,1-9.31-4.11,14.11,14.11,0,0,1-2.68-4.5,15.71,15.71,0,0,1-1-5.54,16.28,16.28,0,0,1,.91-5.52,14.47,14.47,0,0,1,2.52-4.47,11.63,11.63,0,0,1,3.85-3A11,11,0,0,1,43.87,178a10.33,10.33,0,0,1,5.44,1.46,10.55,10.55,0,0,1,3.77,3.8v-15.5h7v30a2.58,2.58,0,0,0,.36,1.56,1.62,1.62,0,0,0,1.25.52v5.93a15.79,15.79,0,0,1-3,.36,4.83,4.83,0,0,1-3.07-.94,3.44,3.44,0,0,1-1.35-2.45L54.12,201A9.89,9.89,0,0,1,50,204.92a11.61,11.61,0,0,1-5.38,1.33Zm1.82-5.93a6.54,6.54,0,0,0,2-.34,7.15,7.15,0,0,0,1.93-1A8.43,8.43,0,0,0,52,197.56a6.06,6.06,0,0,0,1.07-1.82v-6.5a7.62,7.62,0,0,0-1.17-2.11,8.67,8.67,0,0,0-1.72-1.66,9,9,0,0,0-2-1.12,5.77,5.77,0,0,0-2.11-.42,6.26,6.26,0,0,0-2.89.68,6.85,6.85,0,0,0-2.26,1.85,8.88,8.88,0,0,0-1.46,2.68,9.51,9.51,0,0,0-.52,3.12,8.6,8.6,0,0,0,.57,3.17A8.26,8.26,0,0,0,41.06,198a7.1,7.1,0,0,0,2.37,1.72,7.29,7.29,0,0,0,3,.62Zm20.45,5.41V178.46h7v27.26Zm0-31.06v-6.92h7v6.92Zm29.6,29.66a31.06,31.06,0,0,1-3.43,1.25,14.42,14.42,0,0,1-4.27.62,9.9,9.9,0,0,1-2.73-.36,6,6,0,0,1-2.24-1.17,5.71,5.71,0,0,1-1.53-2.08,7.53,7.53,0,0,1-.57-3.1V183.82H78.16v-5.36h3.59v-8.84h7v8.84h5.72v5.36H88.72v13.32a2.48,2.48,0,0,0,.75,2.06,2.88,2.88,0,0,0,1.85.6,6.41,6.41,0,0,0,2.13-.36q1-.36,1.66-.62l1.4,5.51Z"/><path class="cls-14" d="M97.77,192.09a14.83,14.83,0,0,1,1-5.41,13.17,13.17,0,0,1,2.86-4.47,13.92,13.92,0,0,1,4.53-3.07,15,15,0,0,1,6-1.14,14.34,14.34,0,0,1,7.62,1.93,12.3,12.3,0,0,1,4.71,5L117.65,187a6.13,6.13,0,0,0-2.34-2.32,6.55,6.55,0,0,0-3.23-.81,6.64,6.64,0,0,0-2.81.6,6.9,6.9,0,0,0-2.26,1.67,7.71,7.71,0,0,0-1.51,2.58,9.72,9.72,0,0,0-.55,3.33,9.32,9.32,0,0,0,.57,3.33,8.39,8.39,0,0,0,1.53,2.6,6.74,6.74,0,0,0,2.26,1.69,6.52,6.52,0,0,0,2.76.6,6.69,6.69,0,0,0,3.46-.94,5.27,5.27,0,0,0,2.21-2.29l6.82,2.08a11.46,11.46,0,0,1-4.63,5.1,14.55,14.55,0,0,1-7.75,2,15,15,0,0,1-6-1.14,13.55,13.55,0,0,1-7.41-7.62,14.56,14.56,0,0,1-1-5.38Zm47.29-7.6a13.76,13.76,0,0,0-5.67,1.22,7.16,7.16,0,0,0-3.59,3.51v16.49h-7V178.46h6.4v5.83a12.44,12.44,0,0,1,1.72-2.52,13.24,13.24,0,0,1,2.13-2,9.89,9.89,0,0,1,2.32-1.27,6.39,6.39,0,0,1,2.26-.44h.86a2.79,2.79,0,0,1,.55.05v6.35Zm15.19,21.75a15.13,15.13,0,0,1-5.93-1.12,13.38,13.38,0,0,1-7.41-7.52,14.36,14.36,0,0,1-1-5.36,15.18,15.18,0,0,1,1-5.49,13.39,13.39,0,0,1,2.86-4.53,13.66,13.66,0,0,1,4.55-3.1,15.15,15.15,0,0,1,6-1.14,14.78,14.78,0,0,1,6,1.14,13.69,13.69,0,0,1,4.47,3.07,13,13,0,0,1,2.81,4.47,14.9,14.9,0,0,1,1,5.31q0,.68,0,1.3a5.28,5.28,0,0,1-.13,1H153.28a8.09,8.09,0,0,0,.78,2.86,7,7,0,0,0,3.85,3.49,7.34,7.34,0,0,0,2.6.47,8,8,0,0,0,3.93-1,5.37,5.37,0,0,0,2.52-2.68l6,1.66a12.16,12.16,0,0,1-4.81,5.12,14.92,14.92,0,0,1-7.88,2Zm7.08-16.44a7.25,7.25,0,0,0-2.26-4.92,7.1,7.1,0,0,0-9.65,0,7.14,7.14,0,0,0-1.53,2.13,7.52,7.52,0,0,0-.7,2.76Zm22.74,16.44a12.31,12.31,0,0,1-9.31-4.11,14.11,14.11,0,0,1-2.68-4.5,15.7,15.7,0,0,1-1-5.54,16.28,16.28,0,0,1,.91-5.52,14.47,14.47,0,0,1,2.52-4.47,11.63,11.63,0,0,1,3.85-3,11,11,0,0,1,4.89-1.09,10.33,10.33,0,0,1,5.44,1.46,10.55,10.55,0,0,1,3.77,3.8v-15.5h7v30a2.59,2.59,0,0,0,.36,1.56,1.62,1.62,0,0,0,1.25.52v5.93a15.79,15.79,0,0,1-3,.36,4.83,4.83,0,0,1-3.07-.94,3.44,3.44,0,0,1-1.35-2.45l-.16-1.72a9.89,9.89,0,0,1-4.08,3.93,11.61,11.61,0,0,1-5.38,1.33Zm1.82-5.93a6.54,6.54,0,0,0,2-.34,7.15,7.15,0,0,0,1.93-1,8.42,8.42,0,0,0,1.59-1.46,6.05,6.05,0,0,0,1.07-1.82v-6.5a7.62,7.62,0,0,0-1.17-2.11,8.67,8.67,0,0,0-1.72-1.66,9,9,0,0,0-2-1.12,5.77,5.77,0,0,0-2.11-.42,6.26,6.26,0,0,0-2.89.68,6.85,6.85,0,0,0-2.26,1.85,8.88,8.88,0,0,0-1.46,2.68,9.51,9.51,0,0,0-.52,3.12,8.6,8.6,0,0,0,.57,3.17,8.27,8.27,0,0,0,1.56,2.55,7.1,7.1,0,0,0,2.37,1.72,7.29,7.29,0,0,0,3,.62Zm20.45,5.41V178.46h7v27.26Zm0-31.06v-6.92h7v6.92Zm29.6,29.66a31.06,31.06,0,0,1-3.43,1.25,14.42,14.42,0,0,1-4.27.62,9.9,9.9,0,0,1-2.73-.36,6,6,0,0,1-2.24-1.17,5.71,5.71,0,0,1-1.53-2.08,7.53,7.53,0,0,1-.57-3.1V183.82h-3.59v-5.36h3.59v-8.84h7v8.84h5.72v5.36h-5.72v13.32a2.48,2.48,0,0,0,.75,2.06,2.88,2.88,0,0,0,1.85.6,6.41,6.41,0,0,0,2.13-.36q1-.36,1.66-.62l1.4,5.51Z"/></g></g></svg>